<svg width="124" height="124" viewBox="0 0 124 124" fill="none" xmlns="http://www.w3.org/2000/svg">
<path d="M96.6667 1.08765H27.3333C12.9739 1.08765 1.33334 12.7754 1.33334 27.1929V96.8069C1.33334 111.224 12.9739 122.912 27.3333 122.912H96.6667C111.026 122.912 122.667 111.224 122.667 96.8069V27.1929C122.667 12.7754 111.026 1.08765 96.6667 1.08765Z" stroke="#B4B4B4" stroke-width="2"/>
<path d="M19.2083 81.5789H66.875M88.5417 81.5789H104.792H88.5417Z" stroke="#B4B4B4" stroke-width="2" stroke-linecap="round"/>
<path d="M77.7084 88.1051C74.1185 88.1051 71.2084 85.1832 71.2084 81.5788C71.2084 77.9744 74.1185 75.0525 77.7084 75.0525C81.2982 75.0525 84.2084 77.9744 84.2084 81.5788C84.2084 85.1832 81.2982 88.1051 77.7084 88.1051Z" fill="green"/>
<path d="M104.792 98.9824H57.125M35.4583 98.9824H19.2083H35.4583Z" stroke="#B4B4B4" stroke-width="2" stroke-linecap="round"/>
<path d="M46.2917 105.509C49.8815 105.509 52.7917 102.587 52.7917 98.9824C52.7917 95.378 49.8815 92.4561 46.2917 92.4561C42.7018 92.4561 39.7917 95.378 39.7917 98.9824C39.7917 102.587 42.7018 105.509 46.2917 105.509Z" fill="green"/>
<path d="M30.1582 50.976C27.5443 50.976 25.8427 49.7133 25.8427 47.7077C25.8427 45.7022 27.4456 44.5137 30.4541 44.3157L36.1506 43.9195V45.925C36.1506 48.8962 33.4873 50.976 30.1582 50.976ZM27.8155 56.2499C31.2926 56.2499 34.6463 54.5662 36.1259 51.7188H36.2739V55.928H43.228V37.2344C43.228 31.7872 38.6659 28.197 31.6871 28.197C24.9057 28.197 20.2203 31.7872 20.023 36.9868H26.6072C26.9524 35.006 28.7773 33.6194 31.3912 33.6194C34.3504 33.6194 36.1506 35.0555 36.1506 37.68V39.4875L29.3691 39.9084C22.4397 40.3293 18.6667 43.1272 18.6667 48.0791C18.6667 52.9568 22.5876 56.2499 27.8155 56.2499ZM64.9346 56.2499C71.7654 56.2499 75.9822 50.9513 75.9822 42.2854C75.9822 33.6194 71.7654 28.3456 64.9099 28.3456C61.0383 28.3456 58.0298 30.1778 56.5255 33.3223H56.3776V18.4912H49.1769V55.928H56.2543V51.2731H56.4022C57.9065 54.4176 60.9643 56.2499 64.9346 56.2499H64.9346ZM62.4932 34.1889C66.1922 34.1889 68.6089 37.3582 68.6089 42.2854C68.6089 47.2373 66.2169 50.4066 62.4932 50.4066C58.7942 50.4066 56.3529 47.1878 56.3282 42.3101C56.3529 37.4324 58.7942 34.1889 62.4932 34.1889ZM105.309 38.7199H98.6012C98.2066 35.8973 96.2338 33.8918 93.102 33.8918C89.403 33.8918 87.0603 37.061 87.0603 42.2854C87.0603 47.6087 89.403 50.6789 93.1267 50.6789C96.1599 50.6789 98.1573 49.02 98.6259 46.0241H105.333C104.914 52.3626 100.179 56.3984 93.0527 56.3984C84.9396 56.3984 79.761 51.0503 79.761 42.2854C79.761 33.6442 84.9396 28.197 93.0034 28.197C100.303 28.197 104.963 32.6538 105.309 38.7199Z" fill="#c3e601"/>
</svg>
