<svg width="92" height="92" viewBox="0 0 92 92" fill="none" xmlns="http://www.w3.org/2000/svg">
<g filter="url(#filter0_d_1_1010)">
<rect x="16" y="8" width="60" height="60" fill="#47474C"/>
</g>
<g clip-path="url(#clip0_1_1010)">
<path d="M54.6666 25.4815C55.6882 25.4815 56.6679 25.8873 57.3903 26.6097C58.1127 27.332 58.5185 28.3118 58.5185 29.3334V42.7224C58.5185 43.744 58.1127 44.7237 57.3903 45.4461C56.6679 46.1684 55.6882 46.5742 54.6666 46.5742L40.9117 46.5733L34.9962 50.7082C34.8674 50.7979 34.7186 50.8548 34.5629 50.8739L34.4444 50.8816C34.2084 50.8815 33.9806 50.7948 33.8044 50.6379C33.6281 50.4809 33.5156 50.2647 33.4882 50.0303L33.4814 49.9186V29.3334C33.4814 28.3118 33.8873 27.332 34.6096 26.6097C35.332 25.8873 36.3117 25.4815 37.3333 25.4815H54.6666Z" fill="black"/>
</g>
<defs>
<filter id="filter0_d_1_1010" x="0" y="0" width="92" height="92" filterUnits="userSpaceOnUse" color-interpolation-filters="sRGB">
<feFlood flood-opacity="0" result="BackgroundImageFix"/>
<feColorMatrix in="SourceAlpha" type="matrix" values="0 0 0 0 0 0 0 0 0 0 0 0 0 0 0 0 0 0 127 0" result="hardAlpha"/>
<feOffset dy="8"/>
<feGaussianBlur stdDeviation="8"/>
<feColorMatrix type="matrix" values="0 0 0 0 0 0 0 0 0 0 0 0 0 0 0 0 0 0 0.15 0"/>
<feBlend mode="normal" in2="BackgroundImageFix" result="effect1_dropShadow_1_1010"/>
<feBlend mode="normal" in="SourceGraphic" in2="effect1_dropShadow_1_1010" result="shape"/>
</filter>
<clipPath id="clip0_1_1010">
<rect width="26" height="26" fill="white" transform="translate(33 25)"/>
</clipPath>
</defs>
</svg>
